<?xml version="1.0" encoding="utf-8"?>
<!-- Generator: Adobe Illustrator 22.0.1, SVG Export Plug-In . SVG Version: 6.00 Build 0)  -->
<svg version="1.1" id="Logo" xmlns="http://www.w3.org/2000/svg" xmlns:xlink="http://www.w3.org/1999/xlink" x="0px" y="0px"
	 viewBox="0 0 719 224" style="enable-background:new 0 0 719 224;" xml:space="preserve">
<style type="text/css">
	.st0{fill:#007FA3;}
	.st1{fill:#FFFFFF;}
</style>
<g id="XMLID_246_">
	<path id="XMLID_250_" class="st0" d="M158.6,18.6c45,25.6,55.5,83.1,24.2,141.3c-27.5,51.1-87.6,73-132.4,46.9
		c-44.8-26-53.5-98.7-34.3-140.5C44.1,5.7,108.9-9.7,158.6,18.6"/>
	<path id="XMLID_247_" class="st1" d="M157.6,62.7c8.8,9.4,11.6,23.7,10,35.4c-1.8,13.3-9.8,25.7-23.3,33.9
		c-10.7,6.5-24.7,9.1-38.5,9.2c-0.1,2.2-0.5,9.7-0.8,10.9c-0.3,1.8-0.9,2.7-1.7,3.7c-1.5,1.9-4.1,3.2-6.6,3.9c-2,0.6-4,0.8-5.5,0.8
		c-0.2,0-0.5,0-0.7,0c-1.5-0.2-3.2-0.9-4.2-2s-1.6-2.6-1.7-4.2l-0.1-1.5c-0.3-1.3-1.9-66.1-1.6-65c0.2-7.8,12.8-9.1,19.6-7.8
		c6.8,1.4,5.1,9.7,4.9,19.8c0,0-0.3,13.4-1,27.6c8.7-0.3,15.6-2.8,22-6c13-6.5,19.9-16.4,19.9-31s-14.2-31-40.4-31
		S70.4,66,57.7,76.5c-2.9,2.4-5.1,4.8-7.2,6.3c-2.1,1.6-7.6,1.8-9.1-1.9c-1.8-4.4,1.6-9.4,3.5-11.8C48,65.3,55.6,57.8,64,53.4
		c9.7-5,21.5-10.5,37.9-10.9c14.9-0.4,38.4,0.8,55.3,19.9 M100.7,170.1c-1.4-1.1-2.9-1.8-4.5-2.1c-0.5-0.1-1.1-0.2-1.6-0.2
		c-2.9,0-5.8,1.6-7.7,4.3c-1.6,2.2-2.2,4.9-1.8,7.5c0.3,1.7,0.9,3.1,1.8,4.2c1,1.2,2.6,2.1,4.6,2.7c1.1,0.3,2.3,0.5,3.5,0.5l0,0
		c2.5,0,4.8-0.8,6.6-2.2c2.1-1.7,3.2-4.1,3.1-6.7C104.7,175,103.2,172,100.7,170.1"/>
</g>
<path d="M446.9,154.9c-0.8,0.2-1.6,0.4-2.2,0.4c-3.8,0-5-3.2-5-8.2v-37c0-14-8.3-21-24.8-21c-14.7,0-26.2,7-26.2,15.9
	c0,4.6,2.7,8.4,7.9,8.4c6.3,0,8.5-5.1,8.5-8c0-2.5-0.8-5.3-3.7-8.2c2.6-2.7,7.2-4.3,12.4-4.3c8.5,0,12.2,5.1,12.2,16.9v9
	c-16,4.1-39.8,7.3-39.8,25.4c0,7.7,4.9,16.4,18.7,16.4c7.5,0,14.8-3.5,21.8-10.9c0.7,7.9,3.8,10.9,11,10.9c3.6,0,7.6-1.1,10.1-2.6
	c0.9-0.5,1.3-1.4,1-2.3C448.6,154.8,447.7,154.7,446.9,154.9z M426.1,144.4c-1.7,2.6-7.7,9.3-14.5,9.3c-8.7,0-10.6-6.5-10.6-11.9
	c0-8.9,6.8-14.2,25.1-18.7V144.4z M507.5,99.4c0,5.1-3.5,8.6-8.4,8.6c-5.1,0-8.6-3.5-8.6-8.6c0-1,0.2-2.1,0.5-3.1
	c-5.7,1.2-11.1,7.2-13.7,13.1v41.8c0,3.8,1.7,4.9,8.3,5.2c0.8,0,1.5,0.7,1.5,1.6c0,0.9-0.7,1.6-1.6,1.6h-28.4
	c-0.9,0-1.6-0.7-1.6-1.6c0-0.8,0.7-1.5,1.5-1.6c5.7-0.4,6.7-1.5,6.7-5.2v-50.9c0-2.9-0.8-5.8-6.8-6.6c-1-0.1-1.3-1-1.3-1.7
	s0.5-1.6,1.6-1.7l18.2-0.5c1.3,0,2,0.8,2,1.9v10.2C483,92.8,489.5,89,496.3,89C504.5,89,507.5,94.6,507.5,99.4z M713.8,157.9
	c0,0.9-0.7,1.6-1.6,1.6h-25.4c-0.9,0-1.6-0.7-1.6-1.6c0-0.9,0.6-1.5,1.5-1.6c4.6-0.4,5.4-1.6,5.4-5.1v-37.5c0-12.2-3-17-11.8-17
	c-7.1,0-14.5,6.4-18.7,14.9v39.6c0,3.6,0.6,4.8,6.1,5.2c0.8,0.1,1.5,0.7,1.5,1.6c0,0.9-0.7,1.6-1.6,1.6h-26.1
	c-0.9,0-1.6-0.7-1.6-1.6c0-0.8,0.7-1.5,1.5-1.6c5.7-0.4,6.7-1.5,6.7-5.2v-50.9c0-2.9-0.8-5.8-6.8-6.6c-1-0.1-1.3-1-1.3-1.7
	s0.5-1.6,1.6-1.7l18.2-0.5c1.3,0,2,0.8,2,1.9v10.9c5.2-7.4,13-13.7,24.2-13.7c12.9,0,19.8,7.5,19.8,20.6V151c0,3.6,0.9,4.8,6.7,5.2
	C713.1,156.4,713.8,157.1,713.8,157.9z M602.7,89c-19.4,0-34.2,16-34.2,35.8s14.8,35.8,34.2,35.8s34.2-16,34.2-35.8
	C636.8,105,622.1,89,602.7,89z M602.7,156.9c-14.8,0-18.8-14.3-18.8-32s4-32,18.8-32s18.8,14.3,18.8,32
	C621.5,142.5,617.5,156.9,602.7,156.9z M237.1,65.4c10.5,1,12.8,4.7,12.8,9.9v71c0,5.2-2.3,8.8-12.8,9.9c-1.1,0.1-1.5,0.9-1.5,1.7
	s0.5,1.7,1.6,1.7h41.5c1.1,0,1.6-0.9,1.6-1.7s-0.3-1.6-1.5-1.7c-11.3-0.9-13.7-4.4-13.7-9.9v-25.8h12.8c18.3,0,39.6-5.3,39.6-29.3
	c0-23.6-22.8-29.2-42-29.2h-38.4c-1.1,0-1.6,0.9-1.6,1.7C235.6,64.5,235.9,65.3,237.1,65.4z M265.1,66.5h10.7
	c21.5,0,24.6,11.9,24.6,24.7c0,12.9-3.1,24.7-24.6,24.7h-10.7V66.5z M349.4,89c-18.1,0-32.7,16.4-32.7,36.5
	c0,20.3,13.8,35.1,32.7,35.1c15.8,0,24.1-8.7,27.8-16c0.7-1.4,0.5-2.7-0.3-3.2s-1.7-0.1-2.2,0.6c-5.1,6.9-11,11.6-19.9,11.6
	c-20,0-24-20.6-23.1-33.1h43.6c2.2,0,2.6-1.3,2.6-3.4C378,107.3,373,89,349.4,89 M332,115.9c1.5-14.8,7.5-23,16.6-23
	c12.2,0,14.3,10.3,14.3,18.7c0,1.5-0.1,2.8-0.2,4.3H332z M561,137.8c0,13.5-8.6,22.8-23.4,22.8c-6.3,0-13.1-1.6-18.2-5l-4.1,4
	c-0.7,0.7-1.2,0.9-1.8,0.9c-0.8,0-1.3-0.7-1.3-1.9v-21.1c0-1.4,0.6-2.2,1.7-2.2c0.9,0,1.5,0.8,1.9,1.7c6.7,14.5,13.4,19.6,23.4,19.6
	c5.4,0,13-3.5,13-11.3c0-7-4.8-10.6-18-14.5c-13.5-4-21.6-8.2-21.6-20.1c0-12.7,9.8-21.7,24.2-21.7c5.7,0,11.7,2,15.2,4l2.9-3
	c0.6-0.7,1.2-0.9,1.7-0.9c0.9,0,1.2,0.7,1.2,2v18.5c0,1.4-0.6,2.2-1.7,2.2c-0.9,0-1.4-0.6-1.8-1.5c-6.8-13-12-17.3-20.1-17.3
	c-7,0-12.1,4.7-12.1,11.1c0,5.6,5.1,9.1,17.4,12.7C555.2,121.3,561,126.9,561,137.8z"/>
</svg>
